Coordinates
version=1
nRows=20
nColumns=38
inDegrees=no

Units are S.I. units (second, meters, Newtons, ...)
If the header above contains a line with 'inDegrees', this indicates whether rotational values are in degrees (yes) or radians (no).

endheader
time	pelvis_tilt	pelvis_list	pelvis_rotation	pelvis_tx	pelvis_ty	pelvis_tz	hip_flexion_r	hip_adduction_r	hip_rotation_r	knee_angle_r	ankle_angle_r	subtalar_angle_r	mtp_angle_r	hip_flexion_l	hip_adduction_l	hip_rotation_l	knee_angle_l	ankle_angle_l	subtalar_angle_l	mtp_angle_l	lumbar_extension	lumbar_bending	lumbar_rotation	arm_flex_r	arm_add_r	arm_rot_r	elbow_flex_r	pro_sup_r	wrist_flex_r	wrist_dev_r	arm_flex_l	arm_add_l	arm_rot_l	elbow_flex_l	pro_sup_l	wrist_flex_l	wrist_dev_l
0.52	-3.13614	1.39426	-1.66817	0.746821	0.167255	0.962375	-0.324368	0.0417957	-0.149244	0.060287	0.109655	0	0	0.243503	-0.132439	-0.400947	0.46967	-0.0148017	0	0	-0.31908	0.00734849	0.166001	0.135216	-0.29859	0.906107	0.361767	0.768446	0	0	0.145246	-0.179999	0.0912674	0.249171	1.5708	0	0
0.53	-3.09333	1.3914	-1.70924	0.746668	0.174769	0.962188	-0.335513	0.0328706	-0.153534	0.0605462	0.114864	0	0	0.233738	-0.111144	-0.412413	0.405931	-0.0178688	0	0	-0.326813	-0.000970049	0.160525	0.14129	-0.296808	0.909456	0.360613	0.768159	0	0	0.149908	-0.181052	0.0880572	0.246799	1.5708	0	0
0.54	-3.11606	1.40205	-1.68072	0.744975	0.183431	0.959455	-0.333583	0.037163	-0.161465	0.063885	0.124243	0	0	0.233713	-0.0990577	-0.415418	0.33676	-0.0110764	0	0	-0.317331	0.00863434	0.154054	0.141067	-0.302131	0.912189	0.366065	0.767249	0	0	0.147317	-0.178295	0.0858642	0.246957	1.5708	0	0
0.55	-3.09846	1.40498	-1.69457	0.743941	0.191684	0.958016	-0.338257	0.0330874	-0.169318	0.0676331	0.13254	0	0	0.220029	-0.0747157	-0.399809	0.256412	-0.0122797	0	0	-0.317103	0.00796256	0.147669	0.144069	-0.303308	0.915966	0.367017	0.764625	0	0	0.147819	-0.177726	0.0836958	0.246279	1.5708	0	0
0.56	-3.08835	1.40845	-1.70071	0.742828	0.200193	0.956391	-0.343256	0.0306861	-0.175652	0.0705046	0.140453	0	0	0.20767	-0.0547957	-0.380985	0.182793	-0.00961968	0	0	-0.315654	0.00885731	0.141389	0.146354	-0.304698	0.920314	0.367784	0.762346	0	0	0.147923	-0.176756	0.0810288	0.244571	1.5708	0	0
0.57	-3.08004	1.41143	-1.70533	0.741699	0.208969	0.954733	-0.349086	0.0285534	-0.181665	0.0735234	0.14841	0	0	0.192856	-0.0357944	-0.356453	0.110083	-0.0108311	0	0	-0.314018	0.00993531	0.135467	0.147933	-0.305972	0.924952	0.368394	0.758278	0	0	0.147961	-0.175459	0.0774023	0.241561	1.5708	0	0
0.58	-3.07768	1.41391	-1.70448	0.740664	0.218019	0.953017	-0.355557	0.0273815	-0.187556	0.0772305	0.156279	0	0	0.17764	-0.0197387	-0.331004	0.04343	-0.0161991	0	0	-0.312225	0.011668	0.130171	0.148888	-0.307084	0.930278	0.368948	0.754566	0	0	0.147422	-0.174282	0.0744767	0.238212	1.5708	0	0
0.59	-3.0832	1.4166	-1.69642	0.739815	0.227276	0.951182	-0.361578	0.0274892	-0.193061	0.081787	0.163506	0	0	0.167342	-0.00868819	-0.315181	0	-0.020357	0	0	-0.309822	0.0142261	0.125822	0.149237	-0.307441	0.934824	0.368562	0.754674	0	0	0.145726	-0.173574	0.073003	0.236163	1.5708	0	0
0.6	-3.07791	1.41369	-1.69824	0.73923	0.235978	0.949666	-0.371276	0.0288988	-0.193791	0.088584	0.167528	0	0	0.176657	-0.00304014	-0.316224	0	-0.0176769	0	0	-0.313643	0.013506	0.121357	0.150166	-0.306795	0.940242	0.367412	0.754818	0	0	0.145349	-0.173285	0.0721533	0.234998	1.5708	0	0
0.61	-3.07359	1.41212	-1.70022	0.738588	0.245194	0.948206	-0.380334	0.0267159	-0.199549	0.0957938	0.175641	0	0	0.180662	0.00174164	-0.325445	0	-0.0118832	0	0	-0.315542	0.0130531	0.11747	0.150448	-0.305943	0.946182	0.365505	0.754636	0	0	0.144061	-0.173332	0.0705723	0.233813	1.5708	0	0
0.62	-3.06669	1.40971	-1.70646	0.73811	0.254691	0.946924	-0.389601	0.0232092	-0.205599	0.104579	0.183928	0	0	0.180769	0.0065428	-0.33251	0	-0.00756005	0	0	-0.317947	0.011436	0.114836	0.150063	-0.304565	0.94981	0.363473	0.753718	0	0	0.142337	-0.173611	0.0696667	0.231843	1.5708	0	0
0.63	-3.06688	1.40777	-1.70759	0.737803	0.264547	0.945582	-0.398443	0.0202278	-0.209519	0.113812	0.191029	0	0	0.178145	0.00972678	-0.335128	0	-0.00181175	0	0	-0.31932	0.010542	0.114299	0.148591	-0.303709	0.951292	0.362704	0.752755	0	0	0.139564	-0.173837	0.0701423	0.229302	1.5708	0	0
0.64	-3.06689	1.40509	-1.71039	0.73758	0.274688	0.944416	-0.408114	0.01636	-0.212515	0.123118	0.196763	0	0	0.17225	0.0130703	-0.335062	0	-0.0026792	0	0	-0.321128	0.00920619	0.115115	0.146468	-0.303087	0.951773	0.362308	0.752253	0	0	0.135904	-0.174283	0.0698003	0.229067	1.5708	0	0
0.65	-3.07424	1.40308	-1.70723	0.737423	0.285224	0.943215	-0.417623	0.0131325	-0.214357	0.132056	0.20187	0	0	0.164299	0.0148654	-0.330444	0	-0.0056678	0	0	-0.321604	0.00904481	0.117459	0.143117	-0.303169	0.950799	0.362824	0.752516	0	0	0.131175	-0.174696	0.0690033	0.230302	1.5708	0	0
0.66	-3.07893	1.40098	-1.70765	0.737459	0.295701	0.942225	-0.427151	0.00888912	-0.215121	0.141364	0.20587	0	0	0.154487	0.0169194	-0.323138	0	-0.0180892	0	0	-0.322007	0.00806461	0.12083	0.13901	-0.303547	0.947768	0.364148	0.753752	0	0	0.126186	-0.175387	0.0687139	0.232417	1.5708	0	0
0.67	-3.08367	1.39871	-1.70944	0.737083	0.307103	0.94138	-0.437679	-0.000756906	-0.223655	0.150432	0.212348	0	0	0.142603	0.0177004	-0.320317	0	-0.0344442	0	0	-0.321658	0.00718935	0.12569	0.133839	-0.304384	0.942729	0.365393	0.75556	0	0	0.12056	-0.176168	0.0685932	0.233737	1.5708	0	0
0.68	-3.07797	1.39414	-1.71998	0.736682	0.317954	0.940687	-0.447869	-0.00867461	-0.228426	0.163114	0.214754	0	0	0.141875	0.0191309	-0.326233	0.0241532	-0.0420412	0	0	-0.323712	0.00420254	0.129692	0.128531	-0.305262	0.937812	0.366549	0.75771	0	0	0.116103	-0.176289	0.0693682	0.234108	1.5708	0	0
0.69	-3.07946	1.39014	-1.72566	0.736369	0.329344	0.939892	-0.457421	-0.0168926	-0.231657	0.176892	0.216182	0	0	0.121438	0.0266398	-0.310224	0.00820272	-0.066979	0	0	-0.323884	0.00218228	0.136281	0.121645	-0.306315	0.933336	0.366866	0.760386	0	0	0.110167	-0.175771	0.0702367	0.233896	1.5708	0	0
0.7	-3.05798	1.38523	-1.75019	0.735527	0.340149	0.939592	-0.465304	-0.0288032	-0.239665	0.193506	0.216495	0	0	0.136569	0.0239966	-0.334606	0.063461	-0.0675266	0	0	-0.326448	-0.00366263	0.138197	0.117016	-0.305855	0.929639	0.365434	0.762402	0	0	0.106989	-0.175513	0.0704606	0.232669	1.5708	0	0
0.71	-3.02422	1.37363	-1.79158	0.735802	0.350943	0.940497	-0.478852	-0.0453929	-0.242859	0.209694	0.212727	0	0	0.13443	0.0279987	-0.355601	0.097297	-0.0876066	0	0	-0.336029	-0.0165519	0.143329	0.1137	-0.302071	0.926202	0.361646	0.763383	0	0	0.105137	-0.177348	0.0693388	0.231561	1.5708	0	0
